<svg width="20" height="21" viewBox="0 0 20 21" fill="none" xmlns="http://www.w3.org/2000/svg">
<path d="M18.8888 8.91846C18.2666 8.91846 17.7777 9.40734 17.7777 10.0296C17.7629 12.1036 16.9629 14.0443 15.5111 15.4961C14.0444 16.9628 12.0889 17.7776 10.0149 17.7776C7.94083 17.7776 5.98527 16.9628 4.51863 15.4961C4.47418 15.4517 4.44458 15.4072 4.40013 15.3628H5.62972C6.23712 15.3628 6.74082 14.8591 6.74082 14.2517C6.74082 13.6443 6.23712 13.1406 5.62972 13.1406H1.70387C1.09647 13.1406 0.592773 13.6443 0.592773 14.2517V18.1776C0.592773 18.785 1.09647 19.2887 1.70387 19.2887C2.31126 19.2887 2.81496 18.785 2.81496 18.1776V16.9183C2.8594 16.9628 2.90384 17.022 2.94829 17.0813C4.82974 18.9627 7.34825 20.0146 10.0149 20.0146C12.6815 20.0146 15.2 18.9776 17.0814 17.0813C18.948 15.2147 19.9851 12.711 19.9999 10.0444C19.9999 9.42215 19.4962 8.93327 18.8888 8.91846Z" fill="#3080EB"/>
<path d="M1.11142 10.9628C1.71882 10.9628 2.2077 10.4739 2.22251 9.86651C2.25214 7.83691 3.06694 5.92583 4.48914 4.48882C5.95579 3.02217 7.9113 2.20737 9.98534 2.20737C12.0594 2.20737 14.0149 3.02217 15.4816 4.48882C15.526 4.53326 15.5556 4.5777 15.6001 4.62215H14.3705C13.7631 4.62215 13.2594 5.12584 13.2594 5.73324C13.2594 6.34064 13.7631 6.84434 14.3705 6.84434H18.2963C18.9037 6.84434 19.4074 6.34064 19.4074 5.73324V1.82219C19.4074 1.2148 18.9037 0.7111 18.2963 0.7111C17.6889 0.7111 17.1852 1.2148 17.1852 1.82219V3.09625C17.1408 3.0518 17.0964 2.99255 17.0519 2.93329C15.1705 1.05184 12.652 0 9.98534 0C7.31872 0 4.80025 1.03702 2.9188 2.93329C1.06698 4.77029 0.0299571 7.22952 0.000327989 9.83688C-0.0144866 10.4443 0.47438 10.948 1.09659 10.9628C1.11141 10.9628 1.11142 10.9628 1.11142 10.9628Z" fill="#3080EB"/>
</svg>
